# xmcd CD database file
#
# Track frame offsets:
#	150
#	15005
#	23589
#	39689
#	50667
#	67008
#	80025
#	99338
#	112042
#	124667
#	138126
#	147650
#	160680
#	170798
#
# Disc length: 2487 seconds
#
# Revision: 0
# Processed by: cddbd v1.4PL0 Copyright (c) Steve Scherf et al.
# Submitted via: CDex 1.50beta10
#
DISCID=bb09b50e
DTITLE=B.B. King - B.B. Boogie - Disc 2
DYEAR=2002
DGENRE=Blues
TTITLE0=B.B Boogie
TTITLE1=A New Way Of Driving
TTITLE2=It's My Own Fault
TTITLE3=Catfish Blues
TTITLE4=The Other Night Blues
TTITLE5=Walkin' and Cryin'
TTITLE6=Sweet Sixteen
TTITLE7=Please Love Me
TTITLE8=I'm Working on the Building
TTITLE9=Servant's Prayer
TTITLE10=Swing Low Sweet Chariot/Rock Me Lord
TTITLE11=Army of the Lord
TTITLE12=I'm Willing to Run All the Way
TTITLE13=Long Nights
EXTD=YEAR: 2002
EXTT0=
EXTT1=
EXTT2=
EXTT3=
EXTT4=
EXTT5=
EXTT6=
EXTT7=
EXTT8=
EXTT9=
EXTT10=
EXTT11=
EXTT12=
EXTT13=
PLAYORDER=
